<svg width="18" height="17" viewBox="0 0 18 17" fill="none" xmlns="http://www.w3.org/2000/svg">
<path d="M13.6464 16.3536C13.8417 16.5488 14.1583 16.5488 14.3536 16.3536L17.5355 13.1716C17.7308 12.9763 17.7308 12.6597 17.5355 12.4645C17.3403 12.2692 17.0237 12.2692 16.8284 12.4645L14 15.2929L11.1716 12.4645C10.9763 12.2692 10.6597 12.2692 10.4645 12.4645C10.2692 12.6597 10.2692 12.9763 10.4645 13.1716L13.6464 16.3536ZM13.5 1L13.5 16L14.5 16L14.5 1L13.5 1Z" fill="#2C2C2C"/>
<path d="M3.64645 0.646445C3.84171 0.451183 4.15829 0.451183 4.35355 0.646445L7.53553 3.82843C7.7308 4.02369 7.7308 4.34027 7.53553 4.53553C7.34027 4.7308 7.02369 4.7308 6.82843 4.53553L4 1.70711L1.17157 4.53553C0.976311 4.73079 0.659729 4.73079 0.464467 4.53553C0.269204 4.34027 0.269204 4.02369 0.464467 3.82843L3.64645 0.646445ZM3.5 16L3.5 0.999999L4.5 0.999999L4.5 16L3.5 16Z" fill="#2C2C2C"/>
</svg>
